<svg width="204" height="40" viewBox="0 0 204 40" fill="none" xmlns="http://www.w3.org/2000/svg">
<rect width="204" height="40" fill="#1E1E1E"/>
<g id="Components">
<path d="M-817 -9880C-817 -9881.11 -816.105 -9882 -815 -9882H9579C9580.1 -9882 9581 -9881.1 9581 -9880V24241C9581 24242.1 9580.1 24243 9579 24243H-815C-816.105 24243 -817 24242.1 -817 24241V-9880Z" fill="#404040"/>
<path d="M-815 -9882V-9881H9579V-9882V-9883H-815V-9882ZM9581 -9880H9580V24241H9581H9582V-9880H9581ZM9579 24243V24242H-815V24243V24244H9579V24243ZM-817 24241H-816V-9880H-817H-818V24241H-817ZM-815 24243V24242C-815.552 24242 -816 24241.6 -816 24241H-817H-818C-818 24242.7 -816.657 24244 -815 24244V24243ZM9581 24241H9580C9580 24241.6 9579.55 24242 9579 24242V24243V24244C9580.66 24244 9582 24242.7 9582 24241H9581ZM9579 -9882V-9881C9579.55 -9881 9580 -9880.55 9580 -9880H9581H9582C9582 -9881.66 9580.66 -9883 9579 -9883V-9882ZM-815 -9882V-9883C-816.656 -9883 -818 -9881.66 -818 -9880H-817H-816C-816 -9880.55 -815.553 -9881 -815 -9881V-9882Z" fill="white" fill-opacity="0.1"/>
<g id="logo">
<rect x="-19.5" y="-154.5" width="242.015" height="214" rx="4.5" stroke="#8A38F5" stroke-dasharray="10 5"/>
<g id="Version=Logo+Feature" clip-path="url(#clip0_1_149)">
<g id="Group">
<path id="Vector" d="M11.5347 25.5745C11.948 24.9689 12.7746 24.8038 13.4084 25.2167C14.0146 25.6295 14.1799 26.4553 13.7666 27.0884L8.20071 35.4836C7.7874 36.0891 6.96079 36.2543 6.32705 35.8414C5.72087 35.4285 5.55554 34.6028 5.96885 33.9697L11.5347 25.5745Z" fill="#3F479D"/>
<path id="Vector_2" d="M31.7044 4.40725C32.1177 3.8017 32.9443 3.63655 33.5781 4.04942C34.1842 4.4623 34.3496 5.28806 33.9363 5.92114L28.3704 14.3163C27.9571 14.9219 27.1305 15.087 26.4967 14.6742C25.8905 14.2613 25.7252 13.4355 26.1385 12.8024L31.7044 4.40725Z" fill="#3F479D"/>
<path id="Vector_3" d="M6.65884 9.74796C6.05265 9.33508 5.88733 8.50933 6.30064 7.87625C6.71394 7.27069 7.54056 7.10554 8.1743 7.51842L14.6494 11.8674C15.2556 12.2803 15.4209 13.106 15.0076 13.7391C14.5943 14.3447 13.7677 14.5098 13.134 14.0969L6.65884 9.74796Z" fill="#3F479D"/>
<path id="Vector_4" d="M25.3683 28.1891C24.7621 27.7762 24.5968 26.9505 25.0101 26.3174C25.4234 25.7119 26.25 25.5467 26.8838 25.9596L33.3589 30.3086C33.9651 30.7214 34.1304 31.5472 33.7171 32.1803C33.3038 32.7858 32.4772 32.951 31.8434 32.5381L25.3683 28.1891Z" fill="#3F479D"/>
<path id="Vector_5" d="M21.1254 20.7846C21.5387 20.179 21.3734 19.3258 20.7672 18.9129C20.161 18.5 19.3069 18.6652 18.8936 19.2707C18.4803 19.8763 18.6456 20.7295 19.2518 21.1424L17.7639 23.372C15.9178 22.1333 15.4218 19.6285 16.6617 17.7844C17.9016 15.9402 20.409 15.4447 22.2551 16.6833C24.1012 17.922 24.5972 20.4268 23.3573 22.271C22.1174 24.1151 19.61 24.6106 17.7639 23.372L19.2518 21.1424C19.858 21.5553 20.7121 21.3902 21.1254 20.7846Z" fill="#3F479D"/>
<path id="Vector_6" d="M31.5117 37.273C32.2006 37.7409 32.3659 38.6492 31.8975 39.3373C31.4291 40.0255 30.5198 40.1906 29.831 39.7227L18.8921 32.3459L14.1529 39.3649C13.6844 40.053 12.7752 40.2182 12.0863 39.7502C11.3975 39.2823 11.2322 38.374 11.7006 37.6858L18.0931 28.2172L31.4842 37.2454L31.5117 37.273Z" fill="#3F479D"/>
<path id="Vector_7" d="M2.74535 31.6022C2.27694 32.2904 1.36767 32.4555 0.678821 31.9876C-0.0100235 31.5197 -0.175346 30.6113 0.293068 29.9232L7.67748 18.9957L0.651267 14.2614C-0.0375773 13.7934 -0.2029 12.8851 0.265514 12.197C0.733929 11.5088 1.6432 11.3437 2.33205 11.8116L11.8106 18.1975L2.77291 31.5747L2.74535 31.6022Z" fill="#3F479D"/>
<path id="Vector_8" d="M8.50405 2.72737C7.81521 2.25944 7.64988 1.35111 8.1183 0.66298C8.58671 -0.0251498 9.49599 -0.190301 10.1848 0.277627L21.1237 7.65438L25.8629 0.635455C26.3313 -0.052675 27.2406 -0.217826 27.9295 0.250102C28.6183 0.718031 28.7836 1.62636 28.3152 2.31449L21.9227 11.7832L8.5316 2.7549L8.50405 2.72737Z" fill="#3F479D"/>
<path id="Vector_9" d="M37.2698 8.39839C37.7382 7.71026 38.6475 7.54511 39.3363 8.01304C40.0252 8.48097 40.1905 9.3893 39.7221 10.0774L32.3377 21.0049L39.3639 25.7393C40.0527 26.2072 40.218 27.1155 39.7496 27.8037C39.2812 28.4918 38.3719 28.6569 37.6831 28.189L28.2046 21.8032L37.2422 8.42592L37.2698 8.39839Z" fill="#3F479D"/>
</g>
<path id="Vector_10" d="M58.0151 28H56.0151V12H58.0151V27.9975V28Z" fill="#110041"/>
<path id="Anonimizador" d="M74.1151 27L79.4551 13.28H82.7351L88.0951 27H85.2751L84.1751 24.08H77.8951L76.7951 27H74.1151ZM78.7151 21.88H83.3351L81.9551 18.16C81.9018 18.0267 81.8351 17.86 81.7551 17.66C81.6885 17.4467 81.6151 17.22 81.5351 16.98C81.4551 16.7267 81.3751 16.4733 81.2951 16.22C81.2151 15.9667 81.1418 15.74 81.0751 15.54H80.9751C80.8951 15.8067 80.7951 16.1133 80.6751 16.46C80.5685 16.8067 80.4618 17.1333 80.3551 17.44C80.2485 17.7467 80.1618 17.9867 80.0951 18.16L78.7151 21.88ZM89.4948 27V16.48H91.5348L91.7348 17.88H91.8748C92.1148 17.56 92.3948 17.28 92.7148 17.04C93.0482 16.7867 93.4215 16.5933 93.8348 16.46C94.2615 16.3133 94.7282 16.24 95.2348 16.24C95.9015 16.24 96.4882 16.36 96.9948 16.6C97.5148 16.84 97.9215 17.2267 98.2148 17.76C98.5082 18.2933 98.6548 19.0067 98.6548 19.9V27H96.1948V20.34C96.1948 19.9667 96.1482 19.66 96.0548 19.42C95.9748 19.1667 95.8482 18.9667 95.6748 18.82C95.5148 18.66 95.3148 18.5467 95.0748 18.48C94.8348 18.4133 94.5682 18.38 94.2748 18.38C93.8348 18.38 93.4348 18.4867 93.0748 18.7C92.7282 18.9133 92.4482 19.2067 92.2348 19.58C92.0348 19.9533 91.9348 20.3867 91.9348 20.88V27H89.4948ZM105.855 27.24C104.708 27.24 103.748 27.0467 102.975 26.66C102.201 26.26 101.621 25.6533 101.235 24.84C100.848 24.0267 100.655 22.9933 100.655 21.74C100.655 20.4733 100.848 19.44 101.235 18.64C101.621 17.8267 102.201 17.2267 102.975 16.84C103.748 16.44 104.708 16.24 105.855 16.24C107.015 16.24 107.975 16.44 108.735 16.84C109.508 17.2267 110.088 17.8267 110.475 18.64C110.861 19.44 111.055 20.4733 111.055 21.74C111.055 22.9933 110.861 24.0267 110.475 24.84C110.088 25.6533 109.508 26.26 108.735 26.66C107.975 27.0467 107.015 27.24 105.855 27.24ZM105.855 25.24C106.495 25.24 107.008 25.12 107.395 24.88C107.795 24.6267 108.081 24.2533 108.255 23.76C108.441 23.2533 108.535 22.6267 108.535 21.88V21.6C108.535 20.8533 108.441 20.2333 108.255 19.74C108.081 19.2333 107.795 18.86 107.395 18.62C107.008 18.3667 106.495 18.24 105.855 18.24C105.215 18.24 104.695 18.3667 104.295 18.62C103.908 18.86 103.621 19.2333 103.435 19.74C103.261 20.2333 103.175 20.8533 103.175 21.6V21.88C103.175 22.6267 103.261 23.2533 103.435 23.76C103.621 24.2533 103.908 24.6267 104.295 24.88C104.695 25.12 105.215 25.24 105.855 25.24ZM113.128 27V16.48H115.168L115.368 17.88H115.508C115.748 17.56 116.028 17.28 116.348 17.04C116.681 16.7867 117.054 16.5933 117.468 16.46C117.894 16.3133 118.361 16.24 118.868 16.24C119.534 16.24 120.121 16.36 120.628 16.6C121.148 16.84 121.554 17.2267 121.848 17.76C122.141 18.2933 122.288 19.0067 122.288 19.9V27H119.828V20.34C119.828 19.9667 119.781 19.66 119.688 19.42C119.608 19.1667 119.481 18.9667 119.308 18.82C119.148 18.66 118.948 18.5467 118.708 18.48C118.468 18.4133 118.201 18.38 117.908 18.38C117.468 18.38 117.068 18.4867 116.708 18.7C116.361 18.9133 116.081 19.2067 115.868 19.58C115.668 19.9533 115.568 20.3867 115.568 20.88V27H113.128ZM124.807 14.86V12.54H127.247V14.86H124.807ZM124.807 27V16.48H127.247V27H124.807ZM129.846 27V16.48H131.886L132.086 17.88H132.226C132.453 17.56 132.713 17.28 133.006 17.04C133.3 16.7867 133.633 16.5933 134.006 16.46C134.393 16.3133 134.813 16.24 135.266 16.24C135.88 16.24 136.426 16.3667 136.906 16.62C137.386 16.8733 137.76 17.2933 138.026 17.88H138.166C138.393 17.56 138.66 17.28 138.966 17.04C139.273 16.7867 139.626 16.5933 140.026 16.46C140.426 16.3133 140.86 16.24 141.326 16.24C141.953 16.24 142.506 16.3533 142.986 16.58C143.466 16.8067 143.846 17.18 144.126 17.7C144.406 18.22 144.546 18.9133 144.546 19.78V27H142.106V20.28C142.106 19.92 142.066 19.62 141.986 19.38C141.906 19.1267 141.793 18.9333 141.646 18.8C141.513 18.6533 141.34 18.5467 141.126 18.48C140.926 18.4133 140.706 18.38 140.466 18.38C140.08 18.38 139.733 18.4867 139.426 18.7C139.12 18.9133 138.873 19.2067 138.686 19.58C138.513 19.9533 138.426 20.3867 138.426 20.88V27H135.986V20.28C135.986 19.92 135.946 19.62 135.866 19.38C135.786 19.1267 135.673 18.9333 135.526 18.8C135.393 18.6533 135.22 18.5467 135.006 18.48C134.806 18.4133 134.586 18.38 134.346 18.38C133.96 18.38 133.606 18.4867 133.286 18.7C132.98 18.9133 132.733 19.2067 132.546 19.58C132.373 19.9533 132.286 20.3867 132.286 20.88V27H129.846ZM147.073 14.86V12.54H149.513V14.86H147.073ZM147.073 27V16.48H149.513V27H147.073ZM151.292 27V25.86L156.612 18.48H151.632V16.48H160.172V17.6L154.832 25H160.392V27H151.292ZM164.597 27.24C164.304 27.24 163.964 27.2 163.577 27.12C163.204 27.0533 162.837 26.92 162.477 26.72C162.131 26.52 161.844 26.2267 161.617 25.84C161.391 25.44 161.277 24.92 161.277 24.28C161.277 23.56 161.437 22.9667 161.757 22.5C162.077 22.02 162.524 21.6467 163.097 21.38C163.684 21.1 164.377 20.9067 165.177 20.8C165.991 20.68 166.877 20.62 167.837 20.62V19.76C167.837 19.4533 167.791 19.18 167.697 18.94C167.604 18.7 167.431 18.5133 167.177 18.38C166.937 18.2333 166.571 18.16 166.077 18.16C165.584 18.16 165.197 18.22 164.917 18.34C164.637 18.46 164.444 18.6067 164.337 18.78C164.231 18.9533 164.177 19.1333 164.177 19.32V19.6H161.817C161.804 19.5333 161.797 19.4667 161.797 19.4C161.797 19.3333 161.797 19.2533 161.797 19.16C161.797 18.56 161.977 18.04 162.337 17.6C162.697 17.16 163.197 16.8267 163.837 16.6C164.477 16.36 165.217 16.24 166.057 16.24C167.017 16.24 167.804 16.3733 168.417 16.64C169.044 16.9067 169.511 17.2867 169.817 17.78C170.124 18.2733 170.277 18.8733 170.277 19.58V24.54C170.277 24.7933 170.351 24.9733 170.497 25.08C170.644 25.1867 170.804 25.24 170.977 25.24H171.617V26.92C171.484 26.9733 171.291 27.0333 171.037 27.1C170.784 27.18 170.471 27.22 170.097 27.22C169.751 27.22 169.437 27.16 169.157 27.04C168.891 26.9333 168.664 26.7733 168.477 26.56C168.291 26.3467 168.157 26.0933 168.077 25.8H167.957C167.731 26.08 167.457 26.3333 167.137 26.56C166.831 26.7733 166.464 26.94 166.037 27.06C165.624 27.18 165.144 27.24 164.597 27.24ZM165.337 25.24C165.737 25.24 166.091 25.18 166.397 25.06C166.717 24.94 166.977 24.7733 167.177 24.56C167.391 24.3467 167.551 24.0867 167.657 23.78C167.777 23.4733 167.837 23.14 167.837 22.78V22.3C167.104 22.3 166.424 22.3467 165.797 22.44C165.184 22.5333 164.691 22.7067 164.317 22.96C163.957 23.2133 163.777 23.5733 163.777 24.04C163.777 24.28 163.831 24.4933 163.937 24.68C164.057 24.8533 164.231 24.9933 164.457 25.1C164.697 25.1933 164.991 25.24 165.337 25.24ZM176.67 27.24C175.817 27.24 175.077 27.0467 174.45 26.66C173.824 26.2733 173.337 25.6733 172.99 24.86C172.657 24.0467 172.49 23 172.49 21.72C172.49 20.4533 172.664 19.42 173.01 18.62C173.357 17.8067 173.837 17.2067 174.45 16.82C175.064 16.4333 175.757 16.24 176.53 16.24C177.01 16.24 177.45 16.2933 177.85 16.4C178.25 16.5067 178.604 16.6733 178.91 16.9C179.217 17.1133 179.477 17.38 179.69 17.7H179.81V12.54H182.25V27H180.23L180.03 25.6H179.89C179.557 26.1467 179.104 26.56 178.53 26.84C177.97 27.1067 177.35 27.24 176.67 27.24ZM177.43 25.14C177.99 25.14 178.444 25.0133 178.79 24.76C179.137 24.5067 179.39 24.14 179.55 23.66C179.724 23.18 179.81 22.5933 179.81 21.9V21.64C179.81 21.12 179.764 20.6533 179.67 20.24C179.577 19.8267 179.43 19.48 179.23 19.2C179.044 18.92 178.797 18.7067 178.49 18.56C178.197 18.4133 177.844 18.34 177.43 18.34C176.83 18.34 176.35 18.46 175.99 18.7C175.644 18.9267 175.39 19.2867 175.23 19.78C175.084 20.26 175.01 20.8733 175.01 21.62V21.9C175.01 22.6333 175.084 23.24 175.23 23.72C175.39 24.2 175.644 24.56 175.99 24.8C176.35 25.0267 176.83 25.14 177.43 25.14ZM189.526 27.24C188.38 27.24 187.42 27.0467 186.646 26.66C185.873 26.26 185.293 25.6533 184.906 24.84C184.52 24.0267 184.326 22.9933 184.326 21.74C184.326 20.4733 184.52 19.44 184.906 18.64C185.293 17.8267 185.873 17.2267 186.646 16.84C187.42 16.44 188.38 16.24 189.526 16.24C190.686 16.24 191.646 16.44 192.406 16.84C193.18 17.2267 193.76 17.8267 194.146 18.64C194.533 19.44 194.726 20.4733 194.726 21.74C194.726 22.9933 194.533 24.0267 194.146 24.84C193.76 25.6533 193.18 26.26 192.406 26.66C191.646 27.0467 190.686 27.24 189.526 27.24ZM189.526 25.24C190.166 25.24 190.68 25.12 191.066 24.88C191.466 24.6267 191.753 24.2533 191.926 23.76C192.113 23.2533 192.206 22.6267 192.206 21.88V21.6C192.206 20.8533 192.113 20.2333 191.926 19.74C191.753 19.2333 191.466 18.86 191.066 18.62C190.68 18.3667 190.166 18.24 189.526 18.24C188.886 18.24 188.366 18.3667 187.966 18.62C187.58 18.86 187.293 19.2333 187.106 19.74C186.933 20.2333 186.846 20.8533 186.846 21.6V21.88C186.846 22.6267 186.933 23.2533 187.106 23.76C187.293 24.2533 187.58 24.6267 187.966 24.88C188.366 25.12 188.886 25.24 189.526 25.24ZM196.8 27V16.48H198.84L199.04 18.14H199.18C199.313 17.8067 199.473 17.5 199.66 17.22C199.86 16.9267 200.113 16.6933 200.42 16.52C200.726 16.3333 201.1 16.24 201.54 16.24C201.753 16.24 201.946 16.26 202.12 16.3C202.306 16.34 202.446 16.38 202.54 16.42V18.72H201.8C201.386 18.72 201.02 18.78 200.7 18.9C200.38 19.0067 200.106 19.18 199.88 19.42C199.666 19.66 199.506 19.96 199.4 20.32C199.293 20.68 199.24 21.1 199.24 21.58V27H196.8Z" fill="#110041"/>
</g>
</g>
</g>
<defs>
<clipPath id="clip0_1_149">
<rect width="203.015" height="40" fill="white"/>
</clipPath>
</defs>
</svg>
