<svg width="157" height="41" viewBox="0 0 157 41" fill="none" xmlns="http://www.w3.org/2000/svg">
<rect width="157" height="41" fill="#1E1E1E"/>
<g id="Components">
<path d="M-817 -9810C-817 -9811.11 -816.105 -9812 -815 -9812H9579C9580.1 -9812 9581 -9811.1 9581 -9810V24311C9581 24312.1 9580.1 24313 9579 24313H-815C-816.105 24313 -817 24312.1 -817 24311V-9810Z" fill="#404040"/>
<path d="M-815 -9812V-9811H9579V-9812V-9813H-815V-9812ZM9581 -9810H9580V24311H9581H9582V-9810H9581ZM9579 24313V24312H-815V24313V24314H9579V24313ZM-817 24311H-816V-9810H-817H-818V24311H-817ZM-815 24313V24312C-815.552 24312 -816 24311.6 -816 24311H-817H-818C-818 24312.7 -816.657 24314 -815 24314V24313ZM9581 24311H9580C9580 24311.6 9579.55 24312 9579 24312V24313V24314C9580.66 24314 9582 24312.7 9582 24311H9581ZM9579 -9812V-9811C9579.55 -9811 9580 -9810.55 9580 -9810H9581H9582C9582 -9811.66 9580.66 -9813 9579 -9813V-9812ZM-815 -9812V-9813C-816.656 -9813 -818 -9811.66 -818 -9810H-817H-816C-816 -9810.55 -815.553 -9811 -815 -9811V-9812Z" fill="white" fill-opacity="0.1"/>
<g id="logo">
<rect x="-19.5" y="-84.5" width="242.015" height="214" rx="4.5" stroke="#8A38F5" stroke-dasharray="10 5"/>
<g id="Version=Logo" clip-path="url(#clip0_1_149)">
<g id="Group">
<path id="Vector" d="M11.5347 25.5899C11.948 24.9843 12.7746 24.8192 13.4084 25.232C14.0146 25.6449 14.1799 26.4707 13.7666 27.1038L8.20071 35.4989C7.7874 36.1045 6.96079 36.2696 6.32705 35.8568C5.72087 35.4439 5.55554 34.6181 5.96885 33.9851L11.5347 25.5899Z" fill="#3F479D"/>
<path id="Vector_2" d="M31.7044 4.42251C32.1177 3.81696 32.9443 3.65181 33.5781 4.06468C34.1842 4.47756 34.3496 5.30332 33.9363 5.9364L28.3704 14.3316C27.9571 14.9371 27.1305 15.1023 26.4967 14.6894C25.8905 14.2765 25.7252 13.4508 26.1385 12.8177L31.7044 4.42251Z" fill="#3F479D"/>
<path id="Vector_3" d="M6.65884 9.76322C6.05265 9.35034 5.88733 8.52458 6.30064 7.89151C6.71394 7.28595 7.54056 7.1208 8.1743 7.53368L14.6494 11.8827C15.2556 12.2955 15.4209 13.1213 15.0076 13.7544C14.5943 14.3599 13.7677 14.5251 13.134 14.1122L6.65884 9.76322Z" fill="#3F479D"/>
<path id="Vector_4" d="M25.3683 28.2043C24.7621 27.7914 24.5968 26.9656 25.0101 26.3325C25.4234 25.727 26.25 25.5618 26.8838 25.9747L33.3589 30.3237C33.9651 30.7366 34.1304 31.5623 33.7171 32.1954C33.3038 32.801 32.4772 32.9661 31.8434 32.5532L25.3683 28.2043Z" fill="#3F479D"/>
<path id="Vector_5" d="M21.1254 20.7999C21.5387 20.1943 21.3734 19.341 20.7672 18.9281C20.161 18.5153 19.3069 18.6804 18.8936 19.286C18.4803 19.8915 18.6456 20.7448 19.2518 21.1577L17.7639 23.3872C15.9178 22.1486 15.4218 19.6438 16.6617 17.7996C17.9016 15.9554 20.409 15.46 22.2551 16.6986C24.1012 17.9372 24.5972 20.442 23.3573 22.2862C22.1174 24.1304 19.61 24.6259 17.7639 23.3872L19.2518 21.1577C19.858 21.5706 20.7121 21.4054 21.1254 20.7999Z" fill="#3F479D"/>
<path id="Vector_6" d="M31.5117 37.2882C32.2006 37.7561 32.3659 38.6645 31.8975 39.3526C31.4291 40.0407 30.5198 40.2059 29.831 39.738L18.8921 32.3612L14.1529 39.3801C13.6844 40.0683 12.7752 40.2334 12.0863 39.7655C11.3975 39.2976 11.2322 38.3892 11.7006 37.7011L18.0931 28.2324L31.4842 37.2607L31.5117 37.2882Z" fill="#3F479D"/>
<path id="Vector_7" d="M2.74535 31.6175C2.27694 32.3056 1.36767 32.4708 0.678821 32.0029C-0.0100235 31.5349 -0.175346 30.6266 0.293068 29.9385L7.67748 19.011L0.651267 14.2766C-0.0375773 13.8087 -0.2029 12.9004 0.265514 12.2122C0.733929 11.5241 1.6432 11.359 2.33205 11.8269L11.8106 18.2127L2.77291 31.59L2.74535 31.6175Z" fill="#3F479D"/>
<path id="Vector_8" d="M8.50405 2.74275C7.81521 2.27482 7.64988 1.36649 8.1183 0.678361C8.58671 -0.00976895 9.49599 -0.17492 10.1848 0.293008L21.1237 7.66976L25.8629 0.650836C26.3313 -0.0372942 27.2406 -0.202445 27.9295 0.265483C28.6183 0.733411 28.7836 1.64174 28.3152 2.32987L21.9227 11.7985L8.5316 2.77028L8.50405 2.74275Z" fill="#3F479D"/>
<path id="Vector_9" d="M37.2698 8.41378C37.7382 7.72565 38.6475 7.56049 39.3363 8.02842C40.0252 8.49635 40.1905 9.40468 39.7221 10.0928L32.3377 21.0203L39.3639 25.7547C40.0527 26.2226 40.218 27.1309 39.7496 27.819C39.2812 28.5072 38.3719 28.6723 37.6831 28.2044L28.2046 21.8185L37.2422 8.4413L37.2698 8.41378Z" fill="#3F479D"/>
</g>
<g id="Group_2">
<path id="Vector_10" d="M48.0455 20.2574C48.0455 16.3471 50.6551 13.2855 55.0549 13.2855C59.4548 13.2855 61.8823 16.3471 61.8823 20.1968V26.8352H58.8782V24.3799H58.8176C57.9983 25.8349 56.5721 27.1686 54.1446 27.1686C50.3516 27.1686 48.0151 24.0767 48.0151 20.2574H48.0455ZM58.8782 20.1968C58.8782 17.7414 57.3914 15.8318 55.0246 15.8318C52.6578 15.8318 51.0799 17.7414 51.0799 20.2271C51.0799 22.7127 52.5364 24.6224 54.9942 24.6224C57.4521 24.6224 58.9086 22.7127 58.8782 20.1968Z" fill="#110041"/>
<path id="Vector_11" d="M67.8012 29.5938H74.4465C75.3265 29.5938 75.8726 28.9876 75.8726 28.1388V25.3501C74.7499 26.411 73.2934 26.9263 71.8976 26.9263C68.2563 26.9263 66.1626 24.3801 66.1626 21.0154V13.6192H69.1666V20.9851C69.1666 22.9857 70.7142 24.3498 72.5348 24.3498C74.3554 24.3498 75.903 22.9857 75.903 21.0457V13.5889H78.907V28.2298C78.907 30.6244 77.4809 32.1097 75.0534 32.1097H67.8619V29.5635L67.8012 29.5938Z" fill="#110041"/>
<path id="Vector_12" d="M83.1247 18.9236C83.1247 15.8318 85.4005 13.2855 89.2542 13.2855C93.1079 13.2855 92.8651 13.9827 93.8968 15.5286C94.9285 13.9827 96.7188 13.2855 98.5698 13.2855C102.454 13.2855 104.699 15.8318 104.699 18.9236V26.8352H101.726V18.9236C101.726 17.1958 100.33 15.8318 98.5394 15.8318C96.7491 15.8318 95.3533 17.1958 95.3533 18.9236V26.8352H92.3796V18.9236C92.3796 17.1958 90.9534 15.8318 89.1935 15.8318C87.4336 15.8318 86.0074 17.1958 86.0074 18.9236V26.8352H83.0337V18.9236H83.1247Z" fill="#110041"/>
<path id="Vector_13" d="M109.008 21.2584V13.6196H112.012V21.228C112.012 23.2287 113.56 24.623 115.381 24.623C117.201 24.623 118.749 23.2287 118.749 21.228V13.6196H121.753V21.2584C121.753 24.6533 119.265 27.1693 115.411 27.1693C111.557 27.1693 109.069 24.6533 109.069 21.2584H109.008Z" fill="#110041"/>
<path id="Vector_14" d="M125.818 17.3784C125.818 15.0443 127.214 13.6196 129.581 13.6196H132.767V16.1659H130.127C129.308 16.1659 128.792 16.7115 128.792 17.5299V26.8965H125.788V17.4087L125.818 17.3784Z" fill="#110041"/>
<path id="Vector_15" d="M134.77 20.2574C134.77 16.3471 137.379 13.2855 141.779 13.2855C146.179 13.2855 148.606 16.3471 148.606 20.1968V26.8352H145.602V24.3799H145.542C144.722 25.8349 143.296 27.1686 140.869 27.1686C137.076 27.1686 134.739 24.0767 134.739 20.2574H134.77ZM145.602 20.1968C145.602 17.7414 144.116 15.8318 141.749 15.8318C139.382 15.8318 137.804 17.7414 137.804 20.2271C137.804 22.7127 139.26 24.6224 141.718 24.6224C144.176 24.6224 145.633 22.7127 145.602 20.1968Z" fill="#110041"/>
<path id="Vector_16" d="M152.461 9.83034C152.461 8.7694 153.31 7.92065 154.372 7.92065C155.434 7.92065 156.284 8.7694 156.284 9.83034C156.284 10.8913 155.404 11.74 154.372 11.74C153.341 11.74 152.461 10.861 152.461 9.83034ZM152.886 13.6194H155.89V26.8659H152.886V13.6194Z" fill="#110041"/>
</g>
</g>
</g>
</g>
<defs>
<clipPath id="clip0_1_149">
<rect width="156.284" height="40.0305" fill="white"/>
</clipPath>
</defs>
</svg>
